<svg width="10" height="6" viewBox="0 0 10 6" fill="none" xmlns="http://www.w3.org/2000/svg">
<path d="M5 6C5.14401 6 5.27074 5.94479 5.38018 5.82822L9.84447 0.96319C9.94816 0.858896 10 0.723927 10 0.564417C10 0.245399 9.77535 1.1657e-07 9.47581 1.12998e-07C9.32604 1.11212e-07 9.19931 0.0674848 9.10138 0.165644L5 4.6319L0.898618 0.165644C0.800691 0.0674847 0.668203 7.96824e-09 0.524194 6.25095e-09C0.224654 2.67898e-09 6.86229e-08 0.245399 6.48187e-08 0.564417C6.29165e-08 0.723927 0.0518434 0.858896 0.14977 0.96319L4.61982 5.82822C4.7235 5.94479 4.85599 6 5 6Z" fill="#8059EE"/>
</svg>
