<svg width="24" height="24" viewBox="0 0 24 24" fill="none" xmlns="http://www.w3.org/2000/svg">
<mask id="mask0_10786_3292" style="mask-type:alpha" maskUnits="userSpaceOnUse" x="0" y="0" width="24" height="24">
<rect width="24" height="24" rx="12" fill="#A3D0AA"/>
</mask>
<g mask="url(#mask0_10786_3292)">
<rect x="0.5" y="0.5" width="23" height="23" rx="11.5" stroke="#060606"/>
<path d="M12.0321 1.77765V1.27765H11.779L11.6291 1.48172L12.0321 1.77765ZM8.61191 8.92384L8.71004 9.41411L9.02429 9.35121L9.09837 9.0394L8.61191 8.92384ZM12.1155 1.77765L12.5185 1.48172L12.3687 1.27765H12.1155V1.77765ZM15.5692 9.06747L15.0817 9.17877L15.1507 9.48104L15.4522 9.55359L15.5692 9.06747ZM22.6671 12.4761H23.1671V12.223L22.963 12.0731L22.6671 12.4761ZM22.6671 12.5595L22.963 12.9625L23.1671 12.8127V12.5595H22.6671ZM15.6439 15.95L15.5247 15.4644L15.2185 15.5396L15.1543 15.8483L15.6439 15.95ZM12.1155 23.111V23.611H12.3334L12.4818 23.4513L12.1155 23.111ZM12.0321 23.111L11.6659 23.4513L11.8142 23.611H12.0321V23.111ZM8.53481 16.0962L9.0234 15.9899L8.95422 15.6718L8.63532 15.6064L8.53481 16.0962ZM1.33374 12.5595H0.83374V12.7774L0.99339 12.9258L1.33374 12.5595ZM1.33374 12.4761L0.99339 12.1099L0.83374 12.2582V12.4761H1.33374ZM11.6291 1.48172C9.78024 3.99971 8.68108 6.4694 8.12545 8.80827L9.09837 9.0394C9.62123 6.83848 10.6606 4.49031 12.4352 2.07358L11.6291 1.48172ZM12.1155 1.27765H12.0321V2.27765H12.1155V1.27765ZM16.0566 8.95616C15.5126 6.57374 14.4065 4.05295 12.5185 1.48172L11.7125 2.07358C13.5244 4.54129 14.57 6.93759 15.0817 9.17877L16.0566 8.95616ZM22.963 12.0731C20.4629 10.2374 18.0103 9.14071 15.6862 8.58135L15.4522 9.55359C17.6395 10.08 19.9715 11.1172 22.3711 12.8792L22.963 12.0731ZM23.1671 12.5595V12.4761H22.1671V12.5595H23.1671ZM15.7631 16.4356C18.0645 15.8706 20.4905 14.778 22.963 12.9625L22.3711 12.1565C19.998 13.899 17.691 14.9327 15.5247 15.4644L15.7631 16.4356ZM12.4818 23.4513C13.8526 21.9761 15.4445 19.3666 16.1334 16.0518L15.1543 15.8483C14.5041 18.9768 13.0013 21.4231 11.7492 22.7706L12.4818 23.4513ZM12.0321 23.611H12.1155V22.611H12.0321V23.611ZM8.04623 16.2024C8.7514 19.4453 10.3157 21.9983 11.6659 23.4513L12.3984 22.7706C11.1655 21.4437 9.689 19.0509 9.0234 15.9899L8.04623 16.2024ZM0.99339 12.9258C2.47472 14.3022 5.09977 15.9017 8.43431 16.586L8.63532 15.6064C5.48827 14.9606 3.02726 13.4506 1.67409 12.1932L0.99339 12.9258ZM0.83374 12.4761V12.5595H1.83374V12.4761H0.83374ZM8.51378 8.43356C5.14133 9.10857 2.48634 10.7226 0.99339 12.1099L1.67409 12.8424C3.03808 11.575 5.52738 10.0511 8.71004 9.41411L8.51378 8.43356Z" fill="#060606"/>
</g>
</svg>
