<svg width="16" height="16" viewBox="0 0 16 16" fill="none" xmlns="http://www.w3.org/2000/svg">
<path d="M14.8611 13.8637C14.9394 14.2862 15.0292 14.6834 15.1019 14.9844C15.0915 14.9835 15.0809 14.9826 15.0702 14.9817C14.705 14.9512 14.2071 14.9145 13.6775 14.89C13.1492 14.8656 12.5833 14.853 12.0841 14.8717C11.6028 14.8898 11.1256 14.938 10.8115 15.0631C9.94238 15.4094 8.99394 15.6 8 15.6C3.80264 15.6 0.399999 12.1974 0.399999 8C0.399999 3.80263 3.80264 0.399999 8 0.4C12.1974 0.4 15.6 3.80264 15.6 8C15.6 9.19856 15.3228 10.3313 14.8295 11.3385C14.7479 11.5051 14.7093 11.6991 14.691 11.886C14.6722 12.0776 14.6723 12.2886 14.684 12.5044C14.7073 12.936 14.7787 13.4187 14.8611 13.8637Z" stroke="#060606" stroke-width="0.8"/>
</svg>
