<svg width="57" height="62" viewBox="0 0 57 62" fill="none" xmlns="http://www.w3.org/2000/svg">
<path fill-rule="evenodd" clip-rule="evenodd" d="M27 1.75C20.7868 1.75 15.75 6.7868 15.75 13C15.75 19.2132 20.7868 24.25 27 24.25C33.2132 24.25 38.25 19.2132 38.25 13C38.25 6.7868 33.2132 1.75 27 1.75ZM14.25 13C14.25 5.95837 19.9584 0.25 27 0.25C34.0416 0.25 39.75 5.95837 39.75 13C39.75 20.0416 34.0416 25.75 27 25.75C19.9584 25.75 14.25 20.0416 14.25 13ZM8.1194 34.1472C13.1412 29.7224 19.934 27.25 27 27.25C29.7994 27.25 32.5543 27.6379 35.1724 28.3807C36.0999 28.6438 37.0104 28.9515 37.8997 29.3023C38.285 29.4543 38.4742 29.8899 38.3222 30.2752C38.1702 30.6605 37.7346 30.8497 37.3493 30.6977C36.5065 30.3652 35.6432 30.0734 34.763 29.8237C32.2783 29.1188 29.6612 28.75 27 28.75C20.2748 28.75 13.8412 31.1048 9.11105 35.2726C4.38398 39.4377 1.75 45.065 1.75 50.9091V60.25H27H52.25V50.9091C52.25 49.639 52.1257 48.38 51.8829 47.1446C51.803 46.7382 52.0677 46.344 52.4742 46.2641C52.8806 46.1842 53.2748 46.4489 53.3547 46.8554C53.6161 48.1851 53.75 49.5409 53.75 50.9091V61V61.75H53H27H1H0.25V61V50.9091C0.25 44.6015 3.09458 38.5747 8.1194 34.1472ZM47.5667 27.5392C47.5667 27.125 47.9025 26.7892 48.3167 26.7892C48.7309 26.7892 49.0667 27.125 49.0667 27.5392V34.0392H55.5667C55.9809 34.0392 56.3167 34.375 56.3167 34.7892C56.3167 35.2034 55.9809 35.5392 55.5667 35.5392H49.0667V42.0392C49.0667 42.4534 48.7309 42.7892 48.3167 42.7892C47.9025 42.7892 47.5667 42.4534 47.5667 42.0392V35.5392H41.0667C40.6525 35.5392 40.3167 35.2034 40.3167 34.7892C40.3167 34.375 40.6525 34.0392 41.0667 34.0392H47.5667V27.5392Z" fill="#8059EE"/>
</svg>
